<svg width="25" height="24" viewBox="0 0 25 24" fill="none" xmlns="http://www.w3.org/2000/svg">
<path fill-rule="evenodd" clip-rule="evenodd" d="M12.125 0.5C7.15444 0.5 3.125 4.52944 3.125 9.5C3.125 12.1655 4.28375 14.5604 6.125 16.2083V23L11.872 21.0843C11.9659 21.053 12.0128 21.0374 12.0608 21.0312C12.1034 21.0257 12.1466 21.0257 12.1892 21.0312C12.2372 21.0374 12.2841 21.053 12.378 21.0843L18.125 23V16.2083C19.9662 14.5604 21.125 12.1655 21.125 9.5C21.125 4.52944 17.0956 0.5 12.125 0.5ZM6.125 9.5C6.125 6.18629 8.81129 3.5 12.125 3.5C15.4387 3.5 18.125 6.18629 18.125 9.5C18.125 12.8137 15.4387 15.5 12.125 15.5C8.81129 15.5 6.125 12.8137 6.125 9.5Z" fill="#9B7AFF"/>
</svg>
