<svg width="105" height="104" viewBox="0 0 105 104" fill="none" xmlns="http://www.w3.org/2000/svg">
<path d="M6.46559 11.7176C3.93379 15.2024 2.70869 19.385 2.10264 24.9787C1.49999 30.5411 1.5 37.616 1.5 46.9368V47.0002V56.9997V57.0632C1.5 66.384 1.49999 73.4589 2.10264 79.0213C2.70869 84.615 3.93379 88.7976 6.46559 92.2824C8.06926 94.4896 10.0104 96.4307 12.2176 98.0344C15.7024 100.566 19.885 101.791 25.4787 102.397C31.0411 103 38.116 103 47.4367 103H47.5002H57.4997H57.5633C66.884 103 73.9589 103 79.5213 102.397C85.115 101.791 89.2976 100.566 92.7824 98.0344C94.9896 96.4307 96.9307 94.4896 98.5344 92.2824C101.066 88.7976 102.291 84.615 102.897 79.0213C103.5 73.4589 103.5 66.384 103.5 57.0633V56.9998V47.0003V46.9367C103.5 37.616 103.5 30.5411 102.897 24.9787C102.291 19.385 101.066 15.2024 98.5344 11.7176C96.9307 9.51037 94.9896 7.56926 92.7824 5.96559C89.2976 3.43379 85.115 2.20869 79.5213 1.60264C73.9589 0.999995 66.884 0.999997 57.5632 1H57.4998H47.5003H47.4368C38.116 0.999997 31.0411 0.999995 25.4787 1.60264C19.885 2.20869 15.7024 3.43379 12.2176 5.96559C10.0104 7.56926 8.06926 9.51037 6.46559 11.7176Z" fill="url(#paint0_linear_19_379)" stroke="url(#paint1_linear_19_379)" stroke-width="2"/>
<path fill-rule="evenodd" clip-rule="evenodd" d="M37.9978 43.3315C39.9188 43.3315 41.4761 41.7742 41.4761 39.8533C41.4761 37.9323 39.9188 36.375 37.9978 36.375C36.0768 36.375 34.5195 37.9323 34.5195 39.8533C34.5195 41.7742 36.0768 43.3315 37.9978 43.3315ZM66.0471 43.3315C67.9681 43.3315 69.5253 41.7742 69.5253 39.8533C69.5253 37.9323 67.9681 36.375 66.0471 36.375C64.126 36.375 62.5688 37.9323 62.5688 39.8533C62.5688 41.7742 64.126 43.3315 66.0471 43.3315ZM52.1375 64.1914C42.0559 64.1914 32.3873 60.1866 25.2585 53.0579L21.325 56.9914C29.497 65.1633 40.5805 69.7542 52.1375 69.7542C63.6944 69.7542 74.7779 65.1633 82.9499 56.9914L79.0164 53.0579C71.8877 60.1866 62.219 64.1914 52.1375 64.1914Z" fill="white"/>
<defs>
<linearGradient id="paint0_linear_19_379" x1="52.5" y1="2" x2="52.5" y2="102" gradientUnits="userSpaceOnUse">
<stop stop-color="#313341"/>
<stop offset="1" stop-color="#444752"/>
</linearGradient>
<linearGradient id="paint1_linear_19_379" x1="52.5" y1="2" x2="52.5" y2="102" gradientUnits="userSpaceOnUse">
<stop stop-color="#393E48"/>
<stop offset="1" stop-color="#5A5F65"/>
</linearGradient>
</defs>
</svg>
